# xmcd
#
# Track frame offsets: 
#        151
#        14758
#        30329
#        44801
#        58911
#        73048
#        85094
#        99538
#        115295
#        128091
#        142982
#        158978
#        171298
#        186124
#        198073
#        211451
#        223491
#        238572
#
# Disc length: 3360 seconds
#
# Revision: 1
# Processed by: cddbd v1.5.2PL0 Copyright (c) Steve Scherf et al.
# Submitted via: ExactAudioCopy v0.95b4
#
DISCID=0e0d1e12
DTITLE=Various Artist - The Essential Piano Blues Disc 2
DYEAR=1900
DGENRE=Blues
TTITLE0=Meade "Lux" Lewis/Honky Tonk Train Blues
TTITLE1=Walter Davies/Think You Need A Shot
TTITLE2=Cow Cow Davenport/Cow Cow Blues
TTITLE3=James "Boodle It" Wiggins/Keep A-Knockin' An You Can't Get In
TTITLE4=Wesley Wallace/No. 29
TTITLE5=Bob Call/31 Blues
TTITLE6=Little Brother Montgomery/Vicksburg Blues
TTITLE7=Joe Pullum/Black Gal What Makes Your Head So Hard
TTITLE8=Memphis Minnie/Joe Louis Strut
TTITLE9=Charlels Avery/Dearborn Street Breakdown
TTITLE10=Sylvester Palmer/Lonesome Man Blues
TTITLE11=Sparks Brothers/East Chicago Blues
TTITLE12=Jabo Williams/Pratt City Blues
TTITLE13=Peetie Wheatstraw/Shack Bully Stomp
TTITLE14=Charlie Spand/Soon This Morning
TTITLE15=Jimmy Yancey/5 O'Clock Blues
TTITLE16=MontanaTaylor/Detroit Rocks
TTITLE17=Head Rag Hop/Head Rag Hop
EXTD=william hale
EXTT0=
EXTT1=
EXTT2=
EXTT3=
EXTT4=
EXTT5=
EXTT6=
EXTT7=
EXTT8=
EXTT9=
EXTT10=
EXTT11=
EXTT12=
EXTT13=
EXTT14=
EXTT15=
EXTT16=
EXTT17=
PLAYORDER=
